<svg xmlns="http://www.w3.org/2000/svg" viewBox="0 0 1200 800" preserveAspectRatio="xMidYMid slice">
  <defs>
    <linearGradient id="bg" x1="0" y1="0" x2="1" y2="1">
      <stop offset="0%" stop-color="#272219"/><stop offset="100%" stop-color="#1c1915"/>
    </linearGradient>
    <radialGradient id="glow" cx="72%" cy="22%" r="62%">
      <stop offset="0%" stop-color="#a8823a" stop-opacity=".30"/><stop offset="100%" stop-color="#a8823a" stop-opacity="0"/>
    </radialGradient>
    <pattern id="grain" width="6" height="6" patternUnits="userSpaceOnUse">
      <circle cx="1" cy="1" r=".7" fill="#e4cd92" opacity=".07"/>
    </pattern>
  </defs>
  <rect width="1200" height="800" fill="url(#bg)"/>
<rect x="-20" y="393" width="48" height="307" rx="4" fill="none" stroke="#d1ae67" stroke-width="1.5" opacity=".42"/><rect x="-20" y="393" width="48" height="307" fill="#a8823a" opacity=".05"/><rect x="-10" y="415" width="7" height="11" fill="#e4cd92" opacity=".35"/><rect x="10" y="415" width="7" height="11" fill="#e4cd92" opacity=".35"/><rect x="-10" y="445" width="7" height="11" fill="#e4cd92" opacity=".35"/><rect x="-10" y="475" width="7" height="11" fill="#e4cd92" opacity=".35"/><rect x="10" y="475" width="7" height="11" fill="#e4cd92" opacity=".35"/><rect x="-10" y="505" width="7" height="11" fill="#e4cd92" opacity=".35"/><rect x="10" y="505" width="7" height="11" fill="#e4cd92" opacity=".35"/><rect x="10" y="565" width="7" height="11" fill="#e4cd92" opacity=".35"/><rect x="10" y="595" width="7" height="11" fill="#e4cd92" opacity=".35"/><rect x="10" y="655" width="7" height="11" fill="#e4cd92" opacity=".35"/><rect x="-10" y="685" width="7" height="11" fill="#e4cd92" opacity=".35"/><rect x="10" y="685" width="7" height="11" fill="#e4cd92" opacity=".35"/><rect x="38" y="387" width="77" height="313" rx="4" fill="none" stroke="#d1ae67" stroke-width="1.5" opacity=".42"/><rect x="38" y="387" width="77" height="313" fill="#a8823a" opacity=".05"/><rect x="88" y="409" width="7" height="11" fill="#e4cd92" opacity=".35"/><rect x="68" y="439" width="7" height="11" fill="#e4cd92" opacity=".35"/><rect x="68" y="469" width="7" height="11" fill="#e4cd92" opacity=".35"/><rect x="48" y="499" width="7" height="11" fill="#e4cd92" opacity=".35"/><rect x="68" y="499" width="7" height="11" fill="#e4cd92" opacity=".35"/><rect x="88" y="499" width="7" height="11" fill="#e4cd92" opacity=".35"/><rect x="68" y="529" width="7" height="11" fill="#e4cd92" opacity=".35"/><rect x="68" y="559" width="7" height="11" fill="#e4cd92" opacity=".35"/><rect x="48" y="589" width="7" height="11" fill="#e4cd92" opacity=".35"/><rect x="88" y="589" width="7" height="11" fill="#e4cd92" opacity=".35"/><rect x="48" y="619" width="7" height="11" fill="#e4cd92" opacity=".35"/><rect x="68" y="619" width="7" height="11" fill="#e4cd92" opacity=".35"/><rect x="88" y="619" width="7" height="11" fill="#e4cd92" opacity=".35"/><rect x="48" y="649" width="7" height="11" fill="#e4cd92" opacity=".35"/><rect x="68" y="649" width="7" height="11" fill="#e4cd92" opacity=".35"/><rect x="48" y="679" width="7" height="11" fill="#e4cd92" opacity=".35"/><rect x="68" y="679" width="7" height="11" fill="#e4cd92" opacity=".35"/><rect x="125" y="463" width="97" height="237" rx="4" fill="none" stroke="#d1ae67" stroke-width="1.5" opacity=".42"/><rect x="125" y="463" width="97" height="237" fill="#a8823a" opacity=".05"/><rect x="135" y="485" width="7" height="11" fill="#e4cd92" opacity=".35"/><rect x="195" y="485" width="7" height="11" fill="#e4cd92" opacity=".35"/><rect x="155" y="515" width="7" height="11" fill="#e4cd92" opacity=".35"/><rect x="155" y="545" width="7" height="11" fill="#e4cd92" opacity=".35"/><rect x="175" y="545" width="7" height="11" fill="#e4cd92" opacity=".35"/><rect x="195" y="545" width="7" height="11" fill="#e4cd92" opacity=".35"/><rect x="135" y="575" width="7" height="11" fill="#e4cd92" opacity=".35"/><rect x="155" y="575" width="7" height="11" fill="#e4cd92" opacity=".35"/><rect x="175" y="575" width="7" height="11" fill="#e4cd92" opacity=".35"/><rect x="135" y="605" width="7" height="11" fill="#e4cd92" opacity=".35"/><rect x="155" y="605" width="7" height="11" fill="#e4cd92" opacity=".35"/><rect x="175" y="605" width="7" height="11" fill="#e4cd92" opacity=".35"/><rect x="175" y="635" width="7" height="11" fill="#e4cd92" opacity=".35"/><rect x="135" y="665" width="7" height="11" fill="#e4cd92" opacity=".35"/><rect x="232" y="456" width="90" height="244" rx="4" fill="none" stroke="#d1ae67" stroke-width="1.5" opacity=".42"/><rect x="232" y="456" width="90" height="244" fill="#a8823a" opacity=".05"/><rect x="242" y="478" width="7" height="11" fill="#e4cd92" opacity=".35"/><rect x="282" y="478" width="7" height="11" fill="#e4cd92" opacity=".35"/><rect x="302" y="478" width="7" height="11" fill="#e4cd92" opacity=".35"/><rect x="242" y="508" width="7" height="11" fill="#e4cd92" opacity=".35"/><rect x="262" y="508" width="7" height="11" fill="#e4cd92" opacity=".35"/><rect x="302" y="508" width="7" height="11" fill="#e4cd92" opacity=".35"/><rect x="242" y="538" width="7" height="11" fill="#e4cd92" opacity=".35"/><rect x="262" y="538" width="7" height="11" fill="#e4cd92" opacity=".35"/><rect x="282" y="538" width="7" height="11" fill="#e4cd92" opacity=".35"/><rect x="302" y="538" width="7" height="11" fill="#e4cd92" opacity=".35"/><rect x="282" y="568" width="7" height="11" fill="#e4cd92" opacity=".35"/><rect x="262" y="598" width="7" height="11" fill="#e4cd92" opacity=".35"/><rect x="282" y="598" width="7" height="11" fill="#e4cd92" opacity=".35"/><rect x="302" y="598" width="7" height="11" fill="#e4cd92" opacity=".35"/><rect x="242" y="628" width="7" height="11" fill="#e4cd92" opacity=".35"/><rect x="242" y="688" width="7" height="11" fill="#e4cd92" opacity=".35"/><rect x="262" y="688" width="7" height="11" fill="#e4cd92" opacity=".35"/><rect x="282" y="688" width="7" height="11" fill="#e4cd92" opacity=".35"/><rect x="302" y="688" width="7" height="11" fill="#e4cd92" opacity=".35"/><rect x="332" y="465" width="54" height="235" rx="4" fill="none" stroke="#d1ae67" stroke-width="1.5" opacity=".42"/><rect x="332" y="465" width="54" height="235" fill="#a8823a" opacity=".05"/><rect x="342" y="487" width="7" height="11" fill="#e4cd92" opacity=".35"/><rect x="362" y="487" width="7" height="11" fill="#e4cd92" opacity=".35"/><rect x="342" y="517" width="7" height="11" fill="#e4cd92" opacity=".35"/><rect x="362" y="547" width="7" height="11" fill="#e4cd92" opacity=".35"/><rect x="342" y="577" width="7" height="11" fill="#e4cd92" opacity=".35"/><rect x="362" y="577" width="7" height="11" fill="#e4cd92" opacity=".35"/><rect x="342" y="607" width="7" height="11" fill="#e4cd92" opacity=".35"/><rect x="342" y="637" width="7" height="11" fill="#e4cd92" opacity=".35"/><rect x="362" y="637" width="7" height="11" fill="#e4cd92" opacity=".35"/><rect x="362" y="667" width="7" height="11" fill="#e4cd92" opacity=".35"/><rect x="396" y="465" width="55" height="235" rx="4" fill="none" stroke="#d1ae67" stroke-width="1.5" opacity=".42"/><rect x="396" y="465" width="55" height="235" fill="#a8823a" opacity=".05"/><rect x="406" y="487" width="7" height="11" fill="#e4cd92" opacity=".35"/><rect x="406" y="517" width="7" height="11" fill="#e4cd92" opacity=".35"/><rect x="426" y="517" width="7" height="11" fill="#e4cd92" opacity=".35"/><rect x="426" y="547" width="7" height="11" fill="#e4cd92" opacity=".35"/><rect x="406" y="577" width="7" height="11" fill="#e4cd92" opacity=".35"/><rect x="426" y="577" width="7" height="11" fill="#e4cd92" opacity=".35"/><rect x="406" y="607" width="7" height="11" fill="#e4cd92" opacity=".35"/><rect x="426" y="637" width="7" height="11" fill="#e4cd92" opacity=".35"/><rect x="406" y="667" width="7" height="11" fill="#e4cd92" opacity=".35"/><rect x="461" y="399" width="44" height="301" rx="4" fill="none" stroke="#d1ae67" stroke-width="1.5" opacity=".42"/><rect x="461" y="399" width="44" height="301" fill="#a8823a" opacity=".05"/><rect x="471" y="481" width="7" height="11" fill="#e4cd92" opacity=".35"/><rect x="491" y="481" width="7" height="11" fill="#e4cd92" opacity=".35"/><rect x="491" y="511" width="7" height="11" fill="#e4cd92" opacity=".35"/><rect x="491" y="541" width="7" height="11" fill="#e4cd92" opacity=".35"/><rect x="471" y="631" width="7" height="11" fill="#e4cd92" opacity=".35"/><rect x="491" y="631" width="7" height="11" fill="#e4cd92" opacity=".35"/><rect x="491" y="661" width="7" height="11" fill="#e4cd92" opacity=".35"/><rect x="515" y="310" width="93" height="390" rx="4" fill="none" stroke="#d1ae67" stroke-width="1.5" opacity=".42"/><rect x="515" y="310" width="93" height="390" fill="#a8823a" opacity=".05"/><rect x="525" y="332" width="7" height="11" fill="#e4cd92" opacity=".35"/><rect x="545" y="332" width="7" height="11" fill="#e4cd92" opacity=".35"/><rect x="585" y="332" width="7" height="11" fill="#e4cd92" opacity=".35"/><rect x="545" y="362" width="7" height="11" fill="#e4cd92" opacity=".35"/><rect x="585" y="362" width="7" height="11" fill="#e4cd92" opacity=".35"/><rect x="545" y="392" width="7" height="11" fill="#e4cd92" opacity=".35"/><rect x="565" y="422" width="7" height="11" fill="#e4cd92" opacity=".35"/><rect x="525" y="452" width="7" height="11" fill="#e4cd92" opacity=".35"/><rect x="545" y="452" width="7" height="11" fill="#e4cd92" opacity=".35"/><rect x="565" y="452" width="7" height="11" fill="#e4cd92" opacity=".35"/><rect x="525" y="482" width="7" height="11" fill="#e4cd92" opacity=".35"/><rect x="545" y="482" width="7" height="11" fill="#e4cd92" opacity=".35"/><rect x="565" y="482" width="7" height="11" fill="#e4cd92" opacity=".35"/><rect x="585" y="482" width="7" height="11" fill="#e4cd92" opacity=".35"/><rect x="545" y="512" width="7" height="11" fill="#e4cd92" opacity=".35"/><rect x="565" y="512" width="7" height="11" fill="#e4cd92" opacity=".35"/><rect x="585" y="512" width="7" height="11" fill="#e4cd92" opacity=".35"/><rect x="545" y="542" width="7" height="11" fill="#e4cd92" opacity=".35"/><rect x="565" y="542" width="7" height="11" fill="#e4cd92" opacity=".35"/><rect x="545" y="572" width="7" height="11" fill="#e4cd92" opacity=".35"/><rect x="545" y="602" width="7" height="11" fill="#e4cd92" opacity=".35"/><rect x="565" y="602" width="7" height="11" fill="#e4cd92" opacity=".35"/><rect x="525" y="632" width="7" height="11" fill="#e4cd92" opacity=".35"/><rect x="565" y="632" width="7" height="11" fill="#e4cd92" opacity=".35"/><rect x="525" y="662" width="7" height="11" fill="#e4cd92" opacity=".35"/><rect x="618" y="331" width="41" height="369" rx="4" fill="none" stroke="#d1ae67" stroke-width="1.5" opacity=".42"/><rect x="618" y="331" width="41" height="369" fill="#a8823a" opacity=".05"/><rect x="628" y="383" width="7" height="11" fill="#e4cd92" opacity=".35"/><rect x="648" y="383" width="7" height="11" fill="#e4cd92" opacity=".35"/><rect x="628" y="413" width="7" height="11" fill="#e4cd92" opacity=".35"/><rect x="648" y="413" width="7" height="11" fill="#e4cd92" opacity=".35"/><rect x="628" y="473" width="7" height="11" fill="#e4cd92" opacity=".35"/><rect x="648" y="473" width="7" height="11" fill="#e4cd92" opacity=".35"/><rect x="628" y="503" width="7" height="11" fill="#e4cd92" opacity=".35"/><rect x="628" y="533" width="7" height="11" fill="#e4cd92" opacity=".35"/><rect x="648" y="533" width="7" height="11" fill="#e4cd92" opacity=".35"/><rect x="628" y="563" width="7" height="11" fill="#e4cd92" opacity=".35"/><rect x="648" y="563" width="7" height="11" fill="#e4cd92" opacity=".35"/><rect x="628" y="593" width="7" height="11" fill="#e4cd92" opacity=".35"/><rect x="648" y="593" width="7" height="11" fill="#e4cd92" opacity=".35"/><rect x="628" y="623" width="7" height="11" fill="#e4cd92" opacity=".35"/><rect x="648" y="623" width="7" height="11" fill="#e4cd92" opacity=".35"/><rect x="628" y="653" width="7" height="11" fill="#e4cd92" opacity=".35"/><rect x="648" y="653" width="7" height="11" fill="#e4cd92" opacity=".35"/><rect x="628" y="683" width="7" height="11" fill="#e4cd92" opacity=".35"/><rect x="669" y="373" width="96" height="327" rx="4" fill="none" stroke="#d1ae67" stroke-width="1.5" opacity=".42"/><rect x="669" y="373" width="96" height="327" fill="#a8823a" opacity=".05"/><rect x="699" y="395" width="7" height="11" fill="#e4cd92" opacity=".35"/><rect x="719" y="395" width="7" height="11" fill="#e4cd92" opacity=".35"/><rect x="739" y="395" width="7" height="11" fill="#e4cd92" opacity=".35"/><rect x="679" y="425" width="7" height="11" fill="#e4cd92" opacity=".35"/><rect x="719" y="455" width="7" height="11" fill="#e4cd92" opacity=".35"/><rect x="699" y="485" width="7" height="11" fill="#e4cd92" opacity=".35"/><rect x="719" y="485" width="7" height="11" fill="#e4cd92" opacity=".35"/><rect x="739" y="485" width="7" height="11" fill="#e4cd92" opacity=".35"/><rect x="699" y="515" width="7" height="11" fill="#e4cd92" opacity=".35"/><rect x="719" y="515" width="7" height="11" fill="#e4cd92" opacity=".35"/><rect x="699" y="545" width="7" height="11" fill="#e4cd92" opacity=".35"/><rect x="719" y="545" width="7" height="11" fill="#e4cd92" opacity=".35"/><rect x="679" y="575" width="7" height="11" fill="#e4cd92" opacity=".35"/><rect x="739" y="575" width="7" height="11" fill="#e4cd92" opacity=".35"/><rect x="699" y="605" width="7" height="11" fill="#e4cd92" opacity=".35"/><rect x="739" y="605" width="7" height="11" fill="#e4cd92" opacity=".35"/><rect x="719" y="635" width="7" height="11" fill="#e4cd92" opacity=".35"/><rect x="739" y="635" width="7" height="11" fill="#e4cd92" opacity=".35"/><rect x="699" y="665" width="7" height="11" fill="#e4cd92" opacity=".35"/><rect x="775" y="341" width="62" height="359" rx="4" fill="none" stroke="#d1ae67" stroke-width="1.5" opacity=".42"/><rect x="775" y="341" width="62" height="359" fill="#a8823a" opacity=".05"/><rect x="825" y="363" width="7" height="11" fill="#e4cd92" opacity=".35"/><rect x="805" y="393" width="7" height="11" fill="#e4cd92" opacity=".35"/><rect x="825" y="393" width="7" height="11" fill="#e4cd92" opacity=".35"/><rect x="785" y="423" width="7" height="11" fill="#e4cd92" opacity=".35"/><rect x="825" y="423" width="7" height="11" fill="#e4cd92" opacity=".35"/><rect x="805" y="453" width="7" height="11" fill="#e4cd92" opacity=".35"/><rect x="825" y="453" width="7" height="11" fill="#e4cd92" opacity=".35"/><rect x="825" y="483" width="7" height="11" fill="#e4cd92" opacity=".35"/><rect x="825" y="513" width="7" height="11" fill="#e4cd92" opacity=".35"/><rect x="785" y="543" width="7" height="11" fill="#e4cd92" opacity=".35"/><rect x="785" y="573" width="7" height="11" fill="#e4cd92" opacity=".35"/><rect x="805" y="573" width="7" height="11" fill="#e4cd92" opacity=".35"/><rect x="825" y="573" width="7" height="11" fill="#e4cd92" opacity=".35"/><rect x="785" y="633" width="7" height="11" fill="#e4cd92" opacity=".35"/><rect x="825" y="633" width="7" height="11" fill="#e4cd92" opacity=".35"/><rect x="785" y="663" width="7" height="11" fill="#e4cd92" opacity=".35"/><rect x="805" y="663" width="7" height="11" fill="#e4cd92" opacity=".35"/><rect x="825" y="663" width="7" height="11" fill="#e4cd92" opacity=".35"/><rect x="847" y="332" width="39" height="368" rx="4" fill="none" stroke="#d1ae67" stroke-width="1.5" opacity=".42"/><rect x="847" y="332" width="39" height="368" fill="#a8823a" opacity=".05"/><rect x="857" y="354" width="7" height="11" fill="#e4cd92" opacity=".35"/><rect x="857" y="414" width="7" height="11" fill="#e4cd92" opacity=".35"/><rect x="857" y="444" width="7" height="11" fill="#e4cd92" opacity=".35"/><rect x="857" y="474" width="7" height="11" fill="#e4cd92" opacity=".35"/><rect x="857" y="564" width="7" height="11" fill="#e4cd92" opacity=".35"/><rect x="857" y="594" width="7" height="11" fill="#e4cd92" opacity=".35"/><rect x="857" y="624" width="7" height="11" fill="#e4cd92" opacity=".35"/><rect x="857" y="654" width="7" height="11" fill="#e4cd92" opacity=".35"/><rect x="857" y="684" width="7" height="11" fill="#e4cd92" opacity=".35"/><rect x="896" y="461" width="59" height="239" rx="4" fill="none" stroke="#d1ae67" stroke-width="1.5" opacity=".42"/><rect x="896" y="461" width="59" height="239" fill="#a8823a" opacity=".05"/><rect x="926" y="513" width="7" height="11" fill="#e4cd92" opacity=".35"/><rect x="906" y="543" width="7" height="11" fill="#e4cd92" opacity=".35"/><rect x="926" y="573" width="7" height="11" fill="#e4cd92" opacity=".35"/><rect x="906" y="603" width="7" height="11" fill="#e4cd92" opacity=".35"/><rect x="926" y="663" width="7" height="11" fill="#e4cd92" opacity=".35"/><rect x="965" y="298" width="81" height="402" rx="4" fill="none" stroke="#d1ae67" stroke-width="1.5" opacity=".42"/><rect x="965" y="298" width="81" height="402" fill="#a8823a" opacity=".05"/><rect x="975" y="320" width="7" height="11" fill="#e4cd92" opacity=".35"/><rect x="1035" y="320" width="7" height="11" fill="#e4cd92" opacity=".35"/><rect x="975" y="350" width="7" height="11" fill="#e4cd92" opacity=".35"/><rect x="1015" y="350" width="7" height="11" fill="#e4cd92" opacity=".35"/><rect x="1035" y="350" width="7" height="11" fill="#e4cd92" opacity=".35"/><rect x="975" y="380" width="7" height="11" fill="#e4cd92" opacity=".35"/><rect x="1015" y="380" width="7" height="11" fill="#e4cd92" opacity=".35"/><rect x="1015" y="410" width="7" height="11" fill="#e4cd92" opacity=".35"/><rect x="1035" y="410" width="7" height="11" fill="#e4cd92" opacity=".35"/><rect x="995" y="440" width="7" height="11" fill="#e4cd92" opacity=".35"/><rect x="1015" y="440" width="7" height="11" fill="#e4cd92" opacity=".35"/><rect x="975" y="470" width="7" height="11" fill="#e4cd92" opacity=".35"/><rect x="995" y="470" width="7" height="11" fill="#e4cd92" opacity=".35"/><rect x="1015" y="470" width="7" height="11" fill="#e4cd92" opacity=".35"/><rect x="1035" y="470" width="7" height="11" fill="#e4cd92" opacity=".35"/><rect x="995" y="500" width="7" height="11" fill="#e4cd92" opacity=".35"/><rect x="1015" y="500" width="7" height="11" fill="#e4cd92" opacity=".35"/><rect x="1035" y="500" width="7" height="11" fill="#e4cd92" opacity=".35"/><rect x="975" y="530" width="7" height="11" fill="#e4cd92" opacity=".35"/><rect x="995" y="530" width="7" height="11" fill="#e4cd92" opacity=".35"/><rect x="1035" y="530" width="7" height="11" fill="#e4cd92" opacity=".35"/><rect x="975" y="560" width="7" height="11" fill="#e4cd92" opacity=".35"/><rect x="995" y="560" width="7" height="11" fill="#e4cd92" opacity=".35"/><rect x="975" y="590" width="7" height="11" fill="#e4cd92" opacity=".35"/><rect x="995" y="590" width="7" height="11" fill="#e4cd92" opacity=".35"/><rect x="1015" y="590" width="7" height="11" fill="#e4cd92" opacity=".35"/><rect x="1035" y="590" width="7" height="11" fill="#e4cd92" opacity=".35"/><rect x="995" y="620" width="7" height="11" fill="#e4cd92" opacity=".35"/><rect x="1015" y="620" width="7" height="11" fill="#e4cd92" opacity=".35"/><rect x="1035" y="620" width="7" height="11" fill="#e4cd92" opacity=".35"/><rect x="995" y="650" width="7" height="11" fill="#e4cd92" opacity=".35"/><rect x="1015" y="650" width="7" height="11" fill="#e4cd92" opacity=".35"/><rect x="1035" y="650" width="7" height="11" fill="#e4cd92" opacity=".35"/><rect x="975" y="680" width="7" height="11" fill="#e4cd92" opacity=".35"/><rect x="995" y="680" width="7" height="11" fill="#e4cd92" opacity=".35"/><rect x="1056" y="347" width="63" height="353" rx="4" fill="none" stroke="#d1ae67" stroke-width="1.5" opacity=".42"/><rect x="1056" y="347" width="63" height="353" fill="#a8823a" opacity=".05"/><rect x="1086" y="369" width="7" height="11" fill="#e4cd92" opacity=".35"/><rect x="1106" y="369" width="7" height="11" fill="#e4cd92" opacity=".35"/><rect x="1086" y="429" width="7" height="11" fill="#e4cd92" opacity=".35"/><rect x="1066" y="459" width="7" height="11" fill="#e4cd92" opacity=".35"/><rect x="1066" y="489" width="7" height="11" fill="#e4cd92" opacity=".35"/><rect x="1086" y="489" width="7" height="11" fill="#e4cd92" opacity=".35"/><rect x="1106" y="489" width="7" height="11" fill="#e4cd92" opacity=".35"/><rect x="1066" y="519" width="7" height="11" fill="#e4cd92" opacity=".35"/><rect x="1086" y="549" width="7" height="11" fill="#e4cd92" opacity=".35"/><rect x="1106" y="549" width="7" height="11" fill="#e4cd92" opacity=".35"/><rect x="1066" y="579" width="7" height="11" fill="#e4cd92" opacity=".35"/><rect x="1086" y="579" width="7" height="11" fill="#e4cd92" opacity=".35"/><rect x="1106" y="609" width="7" height="11" fill="#e4cd92" opacity=".35"/><rect x="1086" y="639" width="7" height="11" fill="#e4cd92" opacity=".35"/><rect x="1106" y="639" width="7" height="11" fill="#e4cd92" opacity=".35"/><rect x="1086" y="669" width="7" height="11" fill="#e4cd92" opacity=".35"/><rect x="1106" y="669" width="7" height="11" fill="#e4cd92" opacity=".35"/><rect x="1129" y="423" width="89" height="277" rx="4" fill="none" stroke="#d1ae67" stroke-width="1.5" opacity=".42"/><rect x="1129" y="423" width="89" height="277" fill="#a8823a" opacity=".05"/><rect x="1139" y="445" width="7" height="11" fill="#e4cd92" opacity=".35"/><rect x="1159" y="445" width="7" height="11" fill="#e4cd92" opacity=".35"/><rect x="1179" y="445" width="7" height="11" fill="#e4cd92" opacity=".35"/><rect x="1179" y="475" width="7" height="11" fill="#e4cd92" opacity=".35"/><rect x="1199" y="475" width="7" height="11" fill="#e4cd92" opacity=".35"/><rect x="1139" y="505" width="7" height="11" fill="#e4cd92" opacity=".35"/><rect x="1159" y="505" width="7" height="11" fill="#e4cd92" opacity=".35"/><rect x="1139" y="535" width="7" height="11" fill="#e4cd92" opacity=".35"/><rect x="1159" y="535" width="7" height="11" fill="#e4cd92" opacity=".35"/><rect x="1179" y="535" width="7" height="11" fill="#e4cd92" opacity=".35"/><rect x="1159" y="565" width="7" height="11" fill="#e4cd92" opacity=".35"/><rect x="1179" y="565" width="7" height="11" fill="#e4cd92" opacity=".35"/><rect x="1199" y="565" width="7" height="11" fill="#e4cd92" opacity=".35"/><rect x="1159" y="595" width="7" height="11" fill="#e4cd92" opacity=".35"/><rect x="1179" y="595" width="7" height="11" fill="#e4cd92" opacity=".35"/><rect x="1199" y="595" width="7" height="11" fill="#e4cd92" opacity=".35"/><rect x="1139" y="625" width="7" height="11" fill="#e4cd92" opacity=".35"/><rect x="1159" y="625" width="7" height="11" fill="#e4cd92" opacity=".35"/><rect x="1139" y="655" width="7" height="11" fill="#e4cd92" opacity=".35"/><rect x="1159" y="655" width="7" height="11" fill="#e4cd92" opacity=".35"/><rect x="1179" y="655" width="7" height="11" fill="#e4cd92" opacity=".35"/><rect x="1139" y="685" width="7" height="11" fill="#e4cd92" opacity=".35"/><rect x="1159" y="685" width="7" height="11" fill="#e4cd92" opacity=".35"/><rect x="1228" y="467" width="78" height="233" rx="4" fill="none" stroke="#d1ae67" stroke-width="1.5" opacity=".42"/><rect x="1228" y="467" width="78" height="233" fill="#a8823a" opacity=".05"/><rect x="1258" y="489" width="7" height="11" fill="#e4cd92" opacity=".35"/><rect x="1238" y="519" width="7" height="11" fill="#e4cd92" opacity=".35"/><rect x="1258" y="549" width="7" height="11" fill="#e4cd92" opacity=".35"/><rect x="1278" y="549" width="7" height="11" fill="#e4cd92" opacity=".35"/><rect x="1258" y="579" width="7" height="11" fill="#e4cd92" opacity=".35"/><rect x="1238" y="609" width="7" height="11" fill="#e4cd92" opacity=".35"/><rect x="1278" y="639" width="7" height="11" fill="#e4cd92" opacity=".35"/><rect x="1278" y="669" width="7" height="11" fill="#e4cd92" opacity=".35"/><line x1="0" y1="700" x2="1200" y2="700" stroke="#d1ae67" stroke-width="2" opacity=".55"/><path d="M0,720 Q300,712 600,720 T1200,720" fill="none" stroke="#a8823a" stroke-width="1.3" opacity="0.35"/><path d="M0,738 Q300,730 600,738 T1200,738" fill="none" stroke="#a8823a" stroke-width="1.3" opacity="0.29"/><path d="M0,756 Q300,748 600,756 T1200,756" fill="none" stroke="#a8823a" stroke-width="1.3" opacity="0.23"/><path d="M0,774 Q300,766 600,774 T1200,774" fill="none" stroke="#a8823a" stroke-width="1.3" opacity="0.17"/><path d="M0,792 Q300,784 600,792 T1200,792" fill="none" stroke="#a8823a" stroke-width="1.3" opacity="0.11"/>
  <rect width="1200" height="800" fill="url(#glow)"/>
  <rect width="1200" height="800" fill="url(#grain)"/>
</svg>