<svg xmlns="http://www.w3.org/2000/svg" viewBox="0 0 1600 900" preserveAspectRatio="xMidYMid slice">
<defs>
  <linearGradient id="bg" x1="0" y1="0" x2="1" y2="1"><stop offset="0%" stop-color="#2a241b"/><stop offset="100%" stop-color="#1c1915"/></linearGradient>
  <radialGradient id="gl" cx="62%" cy="40%" r="58%"><stop offset="0%" stop-color="#a8823a" stop-opacity=".42"/><stop offset="100%" stop-color="#a8823a" stop-opacity="0"/></radialGradient>
  <pattern id="gr" width="7" height="7" patternUnits="userSpaceOnUse"><circle cx="1" cy="1" r=".8" fill="#e4cd92" opacity=".08"/></pattern>
</defs>
<rect width="1600" height="900" fill="url(#bg)"/>
<rect width="1600" height="900" fill="url(#gl)"/>
<g fill="#d1ae67" opacity="0.42"><circle cx="100" cy="360" r="3"/><circle cx="100" cy="378" r="3"/><circle cx="100" cy="396" r="3"/><circle cx="117" cy="324" r="3"/><circle cx="117" cy="342" r="3"/><circle cx="117" cy="360" r="3"/><circle cx="117" cy="378" r="3"/><circle cx="117" cy="396" r="3"/><circle cx="117" cy="414" r="3"/><circle cx="117" cy="432" r="3"/><circle cx="133" cy="306" r="3"/><circle cx="133" cy="324" r="3"/><circle cx="133" cy="342" r="3"/><circle cx="133" cy="360" r="3"/><circle cx="133" cy="378" r="3"/><circle cx="133" cy="396" r="3"/><circle cx="133" cy="414" r="3"/><circle cx="133" cy="432" r="3"/><circle cx="133" cy="450" r="3"/><circle cx="150" cy="288" r="3"/><circle cx="150" cy="306" r="3"/><circle cx="150" cy="324" r="3"/><circle cx="150" cy="342" r="3"/><circle cx="150" cy="360" r="3"/><circle cx="150" cy="378" r="3"/><circle cx="150" cy="396" r="3"/><circle cx="150" cy="414" r="3"/><circle cx="150" cy="432" r="3"/><circle cx="150" cy="450" r="3"/><circle cx="150" cy="468" r="3"/><circle cx="167" cy="270" r="3"/><circle cx="167" cy="288" r="3"/><circle cx="167" cy="306" r="3"/><circle cx="167" cy="324" r="3"/><circle cx="167" cy="342" r="3"/><circle cx="167" cy="360" r="3"/><circle cx="167" cy="378" r="3"/><circle cx="167" cy="396" r="3"/><circle cx="167" cy="414" r="3"/><circle cx="167" cy="432" r="3"/><circle cx="167" cy="450" r="3"/><circle cx="167" cy="468" r="3"/><circle cx="167" cy="486" r="3"/><circle cx="183" cy="270" r="3"/><circle cx="183" cy="288" r="3"/><circle cx="183" cy="306" r="3"/><circle cx="183" cy="324" r="3"/><circle cx="183" cy="342" r="3"/><circle cx="183" cy="360" r="3"/><circle cx="183" cy="378" r="3"/><circle cx="183" cy="396" r="3"/><circle cx="183" cy="414" r="3"/><circle cx="183" cy="432" r="3"/><circle cx="183" cy="450" r="3"/><circle cx="183" cy="468" r="3"/><circle cx="183" cy="486" r="3"/><circle cx="200" cy="252" r="3"/><circle cx="200" cy="270" r="3"/><circle cx="200" cy="288" r="3"/><circle cx="200" cy="306" r="3"/><circle cx="200" cy="324" r="3"/><circle cx="200" cy="342" r="3"/><circle cx="200" cy="360" r="3"/><circle cx="200" cy="378" r="3"/><circle cx="200" cy="396" r="3"/><circle cx="200" cy="414" r="3"/><circle cx="200" cy="432" r="3"/><circle cx="200" cy="450" r="3"/><circle cx="200" cy="468" r="3"/><circle cx="200" cy="486" r="3"/><circle cx="200" cy="504" r="3"/><circle cx="217" cy="252" r="3"/><circle cx="217" cy="270" r="3"/><circle cx="217" cy="288" r="3"/><circle cx="217" cy="306" r="3"/><circle cx="217" cy="324" r="3"/><circle cx="217" cy="342" r="3"/><circle cx="217" cy="360" r="3"/><circle cx="217" cy="378" r="3"/><circle cx="217" cy="396" r="3"/><circle cx="217" cy="414" r="3"/><circle cx="217" cy="432" r="3"/><circle cx="217" cy="450" r="3"/><circle cx="217" cy="468" r="3"/><circle cx="217" cy="486" r="3"/><circle cx="217" cy="504" r="3"/><circle cx="233" cy="252" r="3"/><circle cx="233" cy="270" r="3"/><circle cx="233" cy="288" r="3"/><circle cx="233" cy="306" r="3"/><circle cx="233" cy="324" r="3"/><circle cx="233" cy="342" r="3"/><circle cx="233" cy="360" r="3"/><circle cx="233" cy="378" r="3"/><circle cx="233" cy="396" r="3"/><circle cx="233" cy="414" r="3"/><circle cx="233" cy="432" r="3"/><circle cx="233" cy="450" r="3"/><circle cx="233" cy="468" r="3"/><circle cx="233" cy="486" r="3"/><circle cx="233" cy="504" r="3"/><circle cx="250" cy="252" r="3"/><circle cx="250" cy="270" r="3"/><circle cx="250" cy="288" r="3"/><circle cx="250" cy="306" r="3"/><circle cx="250" cy="324" r="3"/><circle cx="250" cy="342" r="3"/><circle cx="250" cy="360" r="3"/><circle cx="250" cy="378" r="3"/><circle cx="250" cy="396" r="3"/><circle cx="250" cy="414" r="3"/><circle cx="250" cy="432" r="3"/><circle cx="250" cy="450" r="3"/><circle cx="250" cy="468" r="3"/><circle cx="250" cy="486" r="3"/><circle cx="250" cy="504" r="3"/><circle cx="267" cy="252" r="3"/><circle cx="267" cy="270" r="3"/><circle cx="267" cy="288" r="3"/><circle cx="267" cy="306" r="3"/><circle cx="267" cy="324" r="3"/><circle cx="267" cy="342" r="3"/><circle cx="267" cy="360" r="3"/><circle cx="267" cy="378" r="3"/><circle cx="267" cy="396" r="3"/><circle cx="267" cy="414" r="3"/><circle cx="267" cy="432" r="3"/><circle cx="267" cy="450" r="3"/><circle cx="267" cy="468" r="3"/><circle cx="267" cy="486" r="3"/><circle cx="267" cy="504" r="3"/><circle cx="267" cy="522" r="3"/><circle cx="267" cy="540" r="3"/><circle cx="267" cy="558" r="3"/><circle cx="267" cy="576" r="3"/><circle cx="267" cy="594" r="3"/><circle cx="283" cy="252" r="3"/><circle cx="283" cy="270" r="3"/><circle cx="283" cy="288" r="3"/><circle cx="283" cy="306" r="3"/><circle cx="283" cy="324" r="3"/><circle cx="283" cy="342" r="3"/><circle cx="283" cy="360" r="3"/><circle cx="283" cy="378" r="3"/><circle cx="283" cy="396" r="3"/><circle cx="283" cy="414" r="3"/><circle cx="283" cy="432" r="3"/><circle cx="283" cy="450" r="3"/><circle cx="283" cy="468" r="3"/><circle cx="283" cy="486" r="3"/><circle cx="283" cy="504" r="3"/><circle cx="283" cy="522" r="3"/><circle cx="283" cy="540" r="3"/><circle cx="283" cy="558" r="3"/><circle cx="283" cy="576" r="3"/><circle cx="283" cy="594" r="3"/><circle cx="283" cy="612" r="3"/><circle cx="283" cy="630" r="3"/><circle cx="300" cy="252" r="3"/><circle cx="300" cy="270" r="3"/><circle cx="300" cy="288" r="3"/><circle cx="300" cy="306" r="3"/><circle cx="300" cy="324" r="3"/><circle cx="300" cy="342" r="3"/><circle cx="300" cy="360" r="3"/><circle cx="300" cy="378" r="3"/><circle cx="300" cy="396" r="3"/><circle cx="300" cy="414" r="3"/><circle cx="300" cy="432" r="3"/><circle cx="300" cy="450" r="3"/><circle cx="300" cy="468" r="3"/><circle cx="300" cy="486" r="3"/><circle cx="300" cy="504" r="3"/><circle cx="300" cy="522" r="3"/><circle cx="300" cy="540" r="3"/><circle cx="300" cy="558" r="3"/><circle cx="300" cy="576" r="3"/><circle cx="300" cy="594" r="3"/><circle cx="300" cy="612" r="3"/><circle cx="300" cy="630" r="3"/><circle cx="300" cy="648" r="3"/><circle cx="317" cy="270" r="3"/><circle cx="317" cy="288" r="3"/><circle cx="317" cy="306" r="3"/><circle cx="317" cy="324" r="3"/><circle cx="317" cy="342" r="3"/><circle cx="317" cy="360" r="3"/><circle cx="317" cy="378" r="3"/><circle cx="317" cy="396" r="3"/><circle cx="317" cy="414" r="3"/><circle cx="317" cy="432" r="3"/><circle cx="317" cy="450" r="3"/><circle cx="317" cy="468" r="3"/><circle cx="317" cy="486" r="3"/><circle cx="317" cy="504" r="3"/><circle cx="317" cy="522" r="3"/><circle cx="317" cy="540" r="3"/><circle cx="317" cy="558" r="3"/><circle cx="317" cy="576" r="3"/><circle cx="317" cy="594" r="3"/><circle cx="317" cy="612" r="3"/><circle cx="317" cy="630" r="3"/><circle cx="317" cy="648" r="3"/><circle cx="333" cy="270" r="3"/><circle cx="333" cy="288" r="3"/><circle cx="333" cy="306" r="3"/><circle cx="333" cy="324" r="3"/><circle cx="333" cy="342" r="3"/><circle cx="333" cy="360" r="3"/><circle cx="333" cy="378" r="3"/><circle cx="333" cy="396" r="3"/><circle cx="333" cy="414" r="3"/><circle cx="333" cy="432" r="3"/><circle cx="333" cy="450" r="3"/><circle cx="333" cy="468" r="3"/><circle cx="333" cy="486" r="3"/><circle cx="333" cy="504" r="3"/><circle cx="333" cy="522" r="3"/><circle cx="333" cy="540" r="3"/><circle cx="333" cy="558" r="3"/><circle cx="333" cy="576" r="3"/><circle cx="333" cy="594" r="3"/><circle cx="333" cy="612" r="3"/><circle cx="333" cy="630" r="3"/><circle cx="333" cy="648" r="3"/><circle cx="350" cy="270" r="3"/><circle cx="350" cy="288" r="3"/><circle cx="350" cy="306" r="3"/><circle cx="350" cy="324" r="3"/><circle cx="350" cy="342" r="3"/><circle cx="350" cy="360" r="3"/><circle cx="350" cy="378" r="3"/><circle cx="350" cy="396" r="3"/><circle cx="350" cy="414" r="3"/><circle cx="350" cy="432" r="3"/><circle cx="350" cy="450" r="3"/><circle cx="350" cy="468" r="3"/><circle cx="350" cy="486" r="3"/><circle cx="350" cy="504" r="3"/><circle cx="350" cy="522" r="3"/><circle cx="350" cy="540" r="3"/><circle cx="350" cy="558" r="3"/><circle cx="350" cy="576" r="3"/><circle cx="350" cy="594" r="3"/><circle cx="350" cy="612" r="3"/><circle cx="350" cy="630" r="3"/><circle cx="350" cy="648" r="3"/><circle cx="367" cy="288" r="3"/><circle cx="367" cy="306" r="3"/><circle cx="367" cy="324" r="3"/><circle cx="367" cy="342" r="3"/><circle cx="367" cy="360" r="3"/><circle cx="367" cy="378" r="3"/><circle cx="367" cy="396" r="3"/><circle cx="367" cy="414" r="3"/><circle cx="367" cy="432" r="3"/><circle cx="367" cy="450" r="3"/><circle cx="367" cy="468" r="3"/><circle cx="367" cy="486" r="3"/><circle cx="367" cy="504" r="3"/><circle cx="367" cy="522" r="3"/><circle cx="367" cy="540" r="3"/><circle cx="367" cy="558" r="3"/><circle cx="367" cy="576" r="3"/><circle cx="367" cy="594" r="3"/><circle cx="367" cy="612" r="3"/><circle cx="367" cy="630" r="3"/><circle cx="367" cy="648" r="3"/><circle cx="383" cy="306" r="3"/><circle cx="383" cy="324" r="3"/><circle cx="383" cy="342" r="3"/><circle cx="383" cy="360" r="3"/><circle cx="383" cy="378" r="3"/><circle cx="383" cy="396" r="3"/><circle cx="383" cy="414" r="3"/><circle cx="383" cy="432" r="3"/><circle cx="383" cy="450" r="3"/><circle cx="383" cy="468" r="3"/><circle cx="383" cy="486" r="3"/><circle cx="383" cy="504" r="3"/><circle cx="383" cy="522" r="3"/><circle cx="383" cy="540" r="3"/><circle cx="383" cy="558" r="3"/><circle cx="383" cy="576" r="3"/><circle cx="383" cy="594" r="3"/><circle cx="383" cy="612" r="3"/><circle cx="383" cy="630" r="3"/><circle cx="383" cy="648" r="3"/><circle cx="400" cy="270" r="3"/><circle cx="400" cy="324" r="3"/><circle cx="400" cy="342" r="3"/><circle cx="400" cy="360" r="3"/><circle cx="400" cy="378" r="3"/><circle cx="400" cy="396" r="3"/><circle cx="400" cy="414" r="3"/><circle cx="400" cy="432" r="3"/><circle cx="400" cy="468" r="3"/><circle cx="400" cy="486" r="3"/><circle cx="400" cy="504" r="3"/><circle cx="400" cy="522" r="3"/><circle cx="400" cy="540" r="3"/><circle cx="400" cy="558" r="3"/><circle cx="400" cy="576" r="3"/><circle cx="400" cy="594" r="3"/><circle cx="400" cy="612" r="3"/><circle cx="400" cy="630" r="3"/><circle cx="400" cy="648" r="3"/><circle cx="417" cy="252" r="3"/><circle cx="417" cy="270" r="3"/><circle cx="417" cy="288" r="3"/><circle cx="417" cy="486" r="3"/><circle cx="417" cy="504" r="3"/><circle cx="417" cy="522" r="3"/><circle cx="417" cy="540" r="3"/><circle cx="417" cy="558" r="3"/><circle cx="417" cy="576" r="3"/><circle cx="417" cy="594" r="3"/><circle cx="417" cy="612" r="3"/><circle cx="417" cy="630" r="3"/><circle cx="433" cy="234" r="3"/><circle cx="433" cy="252" r="3"/><circle cx="433" cy="270" r="3"/><circle cx="433" cy="288" r="3"/><circle cx="433" cy="306" r="3"/><circle cx="433" cy="504" r="3"/><circle cx="433" cy="522" r="3"/><circle cx="433" cy="540" r="3"/><circle cx="433" cy="558" r="3"/><circle cx="433" cy="576" r="3"/><circle cx="433" cy="594" r="3"/><circle cx="433" cy="612" r="3"/><circle cx="450" cy="234" r="3"/><circle cx="450" cy="252" r="3"/><circle cx="450" cy="270" r="3"/><circle cx="450" cy="288" r="3"/><circle cx="450" cy="306" r="3"/><circle cx="467" cy="234" r="3"/><circle cx="467" cy="252" r="3"/><circle cx="467" cy="270" r="3"/><circle cx="467" cy="288" r="3"/><circle cx="467" cy="306" r="3"/><circle cx="483" cy="234" r="3"/><circle cx="483" cy="252" r="3"/><circle cx="483" cy="270" r="3"/><circle cx="483" cy="288" r="3"/><circle cx="483" cy="306" r="3"/><circle cx="500" cy="234" r="3"/><circle cx="500" cy="252" r="3"/><circle cx="500" cy="270" r="3"/><circle cx="500" cy="288" r="3"/><circle cx="500" cy="306" r="3"/><circle cx="517" cy="234" r="3"/><circle cx="517" cy="252" r="3"/><circle cx="517" cy="270" r="3"/><circle cx="517" cy="288" r="3"/><circle cx="517" cy="306" r="3"/><circle cx="533" cy="234" r="3"/><circle cx="533" cy="252" r="3"/><circle cx="533" cy="270" r="3"/><circle cx="533" cy="288" r="3"/><circle cx="533" cy="306" r="3"/><circle cx="550" cy="252" r="3"/><circle cx="550" cy="270" r="3"/><circle cx="550" cy="288" r="3"/><circle cx="717" cy="324" r="3"/><circle cx="717" cy="342" r="3"/><circle cx="717" cy="360" r="3"/><circle cx="717" cy="378" r="3"/><circle cx="717" cy="396" r="3"/><circle cx="733" cy="234" r="3"/><circle cx="733" cy="252" r="3"/><circle cx="733" cy="270" r="3"/><circle cx="733" cy="306" r="3"/><circle cx="733" cy="324" r="3"/><circle cx="733" cy="342" r="3"/><circle cx="733" cy="360" r="3"/><circle cx="733" cy="378" r="3"/><circle cx="733" cy="396" r="3"/><circle cx="733" cy="414" r="3"/><circle cx="750" cy="216" r="3"/><circle cx="750" cy="234" r="3"/><circle cx="750" cy="252" r="3"/><circle cx="750" cy="270" r="3"/><circle cx="750" cy="288" r="3"/><circle cx="750" cy="306" r="3"/><circle cx="750" cy="324" r="3"/><circle cx="750" cy="342" r="3"/><circle cx="750" cy="360" r="3"/><circle cx="750" cy="378" r="3"/><circle cx="750" cy="396" r="3"/><circle cx="750" cy="414" r="3"/><circle cx="750" cy="432" r="3"/><circle cx="767" cy="216" r="3"/><circle cx="767" cy="234" r="3"/><circle cx="767" cy="252" r="3"/><circle cx="767" cy="270" r="3"/><circle cx="767" cy="288" r="3"/><circle cx="767" cy="306" r="3"/><circle cx="767" cy="324" r="3"/><circle cx="767" cy="342" r="3"/><circle cx="767" cy="360" r="3"/><circle cx="767" cy="378" r="3"/><circle cx="767" cy="396" r="3"/><circle cx="767" cy="414" r="3"/><circle cx="767" cy="432" r="3"/><circle cx="783" cy="216" r="3"/><circle cx="783" cy="234" r="3"/><circle cx="783" cy="252" r="3"/><circle cx="783" cy="270" r="3"/><circle cx="783" cy="288" r="3"/><circle cx="783" cy="306" r="3"/><circle cx="783" cy="324" r="3"/><circle cx="783" cy="342" r="3"/><circle cx="783" cy="360" r="3"/><circle cx="783" cy="378" r="3"/><circle cx="783" cy="396" r="3"/><circle cx="783" cy="414" r="3"/><circle cx="783" cy="432" r="3"/><circle cx="800" cy="216" r="3"/><circle cx="800" cy="234" r="3"/><circle cx="800" cy="252" r="3"/><circle cx="800" cy="270" r="3"/><circle cx="800" cy="288" r="3"/><circle cx="800" cy="306" r="3"/><circle cx="800" cy="324" r="3"/><circle cx="800" cy="342" r="3"/><circle cx="800" cy="360" r="3"/><circle cx="800" cy="378" r="3"/><circle cx="800" cy="396" r="3"/><circle cx="800" cy="414" r="3"/><circle cx="800" cy="432" r="3"/><circle cx="800" cy="450" r="3"/><circle cx="800" cy="486" r="3"/><circle cx="800" cy="504" r="3"/><circle cx="800" cy="522" r="3"/><circle cx="800" cy="540" r="3"/><circle cx="800" cy="558" r="3"/><circle cx="800" cy="576" r="3"/><circle cx="800" cy="594" r="3"/><circle cx="817" cy="216" r="3"/><circle cx="817" cy="234" r="3"/><circle cx="817" cy="252" r="3"/><circle cx="817" cy="270" r="3"/><circle cx="817" cy="288" r="3"/><circle cx="817" cy="306" r="3"/><circle cx="817" cy="324" r="3"/><circle cx="817" cy="342" r="3"/><circle cx="817" cy="360" r="3"/><circle cx="817" cy="378" r="3"/><circle cx="817" cy="396" r="3"/><circle cx="817" cy="414" r="3"/><circle cx="817" cy="432" r="3"/><circle cx="817" cy="468" r="3"/><circle cx="817" cy="486" r="3"/><circle cx="817" cy="504" r="3"/><circle cx="817" cy="522" r="3"/><circle cx="817" cy="540" r="3"/><circle cx="817" cy="558" r="3"/><circle cx="817" cy="576" r="3"/><circle cx="817" cy="594" r="3"/><circle cx="817" cy="612" r="3"/><circle cx="833" cy="216" r="3"/><circle cx="833" cy="234" r="3"/><circle cx="833" cy="252" r="3"/><circle cx="833" cy="270" r="3"/><circle cx="833" cy="288" r="3"/><circle cx="833" cy="306" r="3"/><circle cx="833" cy="324" r="3"/><circle cx="833" cy="342" r="3"/><circle cx="833" cy="360" r="3"/><circle cx="833" cy="378" r="3"/><circle cx="833" cy="396" r="3"/><circle cx="833" cy="414" r="3"/><circle cx="833" cy="432" r="3"/><circle cx="833" cy="450" r="3"/><circle cx="833" cy="468" r="3"/><circle cx="833" cy="486" r="3"/><circle cx="833" cy="504" r="3"/><circle cx="833" cy="522" r="3"/><circle cx="833" cy="540" r="3"/><circle cx="833" cy="558" r="3"/><circle cx="833" cy="576" r="3"/><circle cx="833" cy="594" r="3"/><circle cx="833" cy="612" r="3"/><circle cx="833" cy="630" r="3"/><circle cx="850" cy="216" r="3"/><circle cx="850" cy="234" r="3"/><circle cx="850" cy="252" r="3"/><circle cx="850" cy="270" r="3"/><circle cx="850" cy="288" r="3"/><circle cx="850" cy="306" r="3"/><circle cx="850" cy="324" r="3"/><circle cx="850" cy="342" r="3"/><circle cx="850" cy="360" r="3"/><circle cx="850" cy="378" r="3"/><circle cx="850" cy="396" r="3"/><circle cx="850" cy="414" r="3"/><circle cx="850" cy="432" r="3"/><circle cx="850" cy="450" r="3"/><circle cx="850" cy="468" r="3"/><circle cx="850" cy="486" r="3"/><circle cx="850" cy="504" r="3"/><circle cx="850" cy="522" r="3"/><circle cx="850" cy="540" r="3"/><circle cx="850" cy="558" r="3"/><circle cx="850" cy="576" r="3"/><circle cx="850" cy="594" r="3"/><circle cx="850" cy="612" r="3"/><circle cx="850" cy="630" r="3"/><circle cx="850" cy="648" r="3"/><circle cx="867" cy="216" r="3"/><circle cx="867" cy="234" r="3"/><circle cx="867" cy="252" r="3"/><circle cx="867" cy="270" r="3"/><circle cx="867" cy="288" r="3"/><circle cx="867" cy="306" r="3"/><circle cx="867" cy="324" r="3"/><circle cx="867" cy="342" r="3"/><circle cx="867" cy="360" r="3"/><circle cx="867" cy="378" r="3"/><circle cx="867" cy="396" r="3"/><circle cx="867" cy="414" r="3"/><circle cx="867" cy="432" r="3"/><circle cx="867" cy="450" r="3"/><circle cx="867" cy="468" r="3"/><circle cx="867" cy="486" r="3"/><circle cx="867" cy="504" r="3"/><circle cx="867" cy="522" r="3"/><circle cx="867" cy="540" r="3"/><circle cx="867" cy="558" r="3"/><circle cx="867" cy="576" r="3"/><circle cx="867" cy="594" r="3"/><circle cx="867" cy="612" r="3"/><circle cx="867" cy="630" r="3"/><circle cx="867" cy="648" r="3"/><circle cx="883" cy="216" r="3"/><circle cx="883" cy="234" r="3"/><circle cx="883" cy="252" r="3"/><circle cx="883" cy="270" r="3"/><circle cx="883" cy="288" r="3"/><circle cx="883" cy="306" r="3"/><circle cx="883" cy="324" r="3"/><circle cx="883" cy="342" r="3"/><circle cx="883" cy="360" r="3"/><circle cx="883" cy="378" r="3"/><circle cx="883" cy="396" r="3"/><circle cx="883" cy="432" r="3"/><circle cx="883" cy="450" r="3"/><circle cx="883" cy="468" r="3"/><circle cx="883" cy="486" r="3"/><circle cx="883" cy="504" r="3"/><circle cx="883" cy="522" r="3"/><circle cx="883" cy="540" r="3"/><circle cx="883" cy="558" r="3"/><circle cx="883" cy="576" r="3"/><circle cx="883" cy="594" r="3"/><circle cx="883" cy="612" r="3"/><circle cx="883" cy="630" r="3"/><circle cx="883" cy="648" r="3"/><circle cx="900" cy="216" r="3"/><circle cx="900" cy="234" r="3"/><circle cx="900" cy="252" r="3"/><circle cx="900" cy="270" r="3"/><circle cx="900" cy="288" r="3"/><circle cx="900" cy="306" r="3"/><circle cx="900" cy="324" r="3"/><circle cx="900" cy="342" r="3"/><circle cx="900" cy="360" r="3"/><circle cx="900" cy="378" r="3"/><circle cx="900" cy="396" r="3"/><circle cx="900" cy="432" r="3"/><circle cx="900" cy="450" r="3"/><circle cx="900" cy="468" r="3"/><circle cx="900" cy="486" r="3"/><circle cx="900" cy="504" r="3"/><circle cx="900" cy="522" r="3"/><circle cx="900" cy="540" r="3"/><circle cx="900" cy="558" r="3"/><circle cx="900" cy="576" r="3"/><circle cx="900" cy="594" r="3"/><circle cx="900" cy="612" r="3"/><circle cx="900" cy="630" r="3"/><circle cx="900" cy="648" r="3"/><circle cx="917" cy="234" r="3"/><circle cx="917" cy="252" r="3"/><circle cx="917" cy="270" r="3"/><circle cx="917" cy="288" r="3"/><circle cx="917" cy="306" r="3"/><circle cx="917" cy="324" r="3"/><circle cx="917" cy="342" r="3"/><circle cx="917" cy="360" r="3"/><circle cx="917" cy="378" r="3"/><circle cx="917" cy="396" r="3"/><circle cx="917" cy="432" r="3"/><circle cx="917" cy="450" r="3"/><circle cx="917" cy="468" r="3"/><circle cx="917" cy="486" r="3"/><circle cx="917" cy="504" r="3"/><circle cx="917" cy="522" r="3"/><circle cx="917" cy="540" r="3"/><circle cx="917" cy="558" r="3"/><circle cx="917" cy="576" r="3"/><circle cx="917" cy="594" r="3"/><circle cx="917" cy="612" r="3"/><circle cx="917" cy="630" r="3"/><circle cx="917" cy="648" r="3"/><circle cx="933" cy="234" r="3"/><circle cx="933" cy="252" r="3"/><circle cx="933" cy="270" r="3"/><circle cx="933" cy="288" r="3"/><circle cx="933" cy="306" r="3"/><circle cx="933" cy="324" r="3"/><circle cx="933" cy="342" r="3"/><circle cx="933" cy="360" r="3"/><circle cx="933" cy="378" r="3"/><circle cx="933" cy="396" r="3"/><circle cx="933" cy="414" r="3"/><circle cx="933" cy="450" r="3"/><circle cx="933" cy="468" r="3"/><circle cx="933" cy="486" r="3"/><circle cx="933" cy="504" r="3"/><circle cx="933" cy="522" r="3"/><circle cx="933" cy="540" r="3"/><circle cx="933" cy="558" r="3"/><circle cx="933" cy="576" r="3"/><circle cx="933" cy="594" r="3"/><circle cx="933" cy="612" r="3"/><circle cx="933" cy="630" r="3"/><circle cx="950" cy="252" r="3"/><circle cx="950" cy="270" r="3"/><circle cx="950" cy="288" r="3"/><circle cx="950" cy="306" r="3"/><circle cx="950" cy="324" r="3"/><circle cx="950" cy="342" r="3"/><circle cx="950" cy="360" r="3"/><circle cx="950" cy="378" r="3"/><circle cx="950" cy="396" r="3"/><circle cx="950" cy="414" r="3"/><circle cx="950" cy="468" r="3"/><circle cx="950" cy="486" r="3"/><circle cx="950" cy="504" r="3"/><circle cx="950" cy="522" r="3"/><circle cx="950" cy="540" r="3"/><circle cx="950" cy="558" r="3"/><circle cx="950" cy="576" r="3"/><circle cx="950" cy="594" r="3"/><circle cx="950" cy="612" r="3"/><circle cx="967" cy="234" r="3"/><circle cx="967" cy="252" r="3"/><circle cx="967" cy="270" r="3"/><circle cx="967" cy="288" r="3"/><circle cx="967" cy="306" r="3"/><circle cx="967" cy="324" r="3"/><circle cx="967" cy="342" r="3"/><circle cx="967" cy="360" r="3"/><circle cx="967" cy="378" r="3"/><circle cx="967" cy="396" r="3"/><circle cx="967" cy="414" r="3"/><circle cx="967" cy="432" r="3"/><circle cx="967" cy="504" r="3"/><circle cx="967" cy="522" r="3"/><circle cx="967" cy="540" r="3"/><circle cx="967" cy="558" r="3"/><circle cx="967" cy="576" r="3"/><circle cx="983" cy="234" r="3"/><circle cx="983" cy="252" r="3"/><circle cx="983" cy="270" r="3"/><circle cx="983" cy="288" r="3"/><circle cx="983" cy="306" r="3"/><circle cx="983" cy="324" r="3"/><circle cx="983" cy="342" r="3"/><circle cx="983" cy="360" r="3"/><circle cx="983" cy="378" r="3"/><circle cx="983" cy="396" r="3"/><circle cx="983" cy="414" r="3"/><circle cx="983" cy="432" r="3"/><circle cx="1000" cy="234" r="3"/><circle cx="1000" cy="252" r="3"/><circle cx="1000" cy="270" r="3"/><circle cx="1000" cy="288" r="3"/><circle cx="1000" cy="306" r="3"/><circle cx="1000" cy="324" r="3"/><circle cx="1000" cy="342" r="3"/><circle cx="1000" cy="360" r="3"/><circle cx="1000" cy="378" r="3"/><circle cx="1000" cy="396" r="3"/><circle cx="1000" cy="414" r="3"/><circle cx="1000" cy="432" r="3"/><circle cx="1017" cy="216" r="3"/><circle cx="1017" cy="234" r="3"/><circle cx="1017" cy="252" r="3"/><circle cx="1017" cy="270" r="3"/><circle cx="1017" cy="288" r="3"/><circle cx="1017" cy="306" r="3"/><circle cx="1017" cy="324" r="3"/><circle cx="1017" cy="342" r="3"/><circle cx="1017" cy="360" r="3"/><circle cx="1017" cy="378" r="3"/><circle cx="1017" cy="396" r="3"/><circle cx="1017" cy="414" r="3"/><circle cx="1017" cy="432" r="3"/><circle cx="1033" cy="216" r="3"/><circle cx="1033" cy="234" r="3"/><circle cx="1033" cy="252" r="3"/><circle cx="1033" cy="270" r="3"/><circle cx="1033" cy="288" r="3"/><circle cx="1033" cy="306" r="3"/><circle cx="1033" cy="324" r="3"/><circle cx="1033" cy="342" r="3"/><circle cx="1033" cy="360" r="3"/><circle cx="1033" cy="378" r="3"/><circle cx="1033" cy="396" r="3"/><circle cx="1033" cy="414" r="3"/><circle cx="1033" cy="432" r="3"/><circle cx="1033" cy="450" r="3"/><circle cx="1050" cy="216" r="3"/><circle cx="1050" cy="234" r="3"/><circle cx="1050" cy="252" r="3"/><circle cx="1050" cy="270" r="3"/><circle cx="1050" cy="288" r="3"/><circle cx="1050" cy="306" r="3"/><circle cx="1050" cy="324" r="3"/><circle cx="1050" cy="342" r="3"/><circle cx="1050" cy="360" r="3"/><circle cx="1050" cy="378" r="3"/><circle cx="1050" cy="396" r="3"/><circle cx="1050" cy="414" r="3"/><circle cx="1050" cy="432" r="3"/><circle cx="1050" cy="450" r="3"/><circle cx="1067" cy="216" r="3"/><circle cx="1067" cy="234" r="3"/><circle cx="1067" cy="252" r="3"/><circle cx="1067" cy="270" r="3"/><circle cx="1067" cy="288" r="3"/><circle cx="1067" cy="306" r="3"/><circle cx="1067" cy="324" r="3"/><circle cx="1067" cy="342" r="3"/><circle cx="1067" cy="360" r="3"/><circle cx="1067" cy="378" r="3"/><circle cx="1067" cy="396" r="3"/><circle cx="1067" cy="414" r="3"/><circle cx="1067" cy="432" r="3"/><circle cx="1067" cy="450" r="3"/><circle cx="1083" cy="216" r="3"/><circle cx="1083" cy="234" r="3"/><circle cx="1083" cy="252" r="3"/><circle cx="1083" cy="270" r="3"/><circle cx="1083" cy="288" r="3"/><circle cx="1083" cy="306" r="3"/><circle cx="1083" cy="324" r="3"/><circle cx="1083" cy="342" r="3"/><circle cx="1083" cy="360" r="3"/><circle cx="1083" cy="378" r="3"/><circle cx="1083" cy="396" r="3"/><circle cx="1083" cy="414" r="3"/><circle cx="1083" cy="432" r="3"/><circle cx="1083" cy="450" r="3"/><circle cx="1100" cy="216" r="3"/><circle cx="1100" cy="234" r="3"/><circle cx="1100" cy="252" r="3"/><circle cx="1100" cy="270" r="3"/><circle cx="1100" cy="288" r="3"/><circle cx="1100" cy="306" r="3"/><circle cx="1100" cy="324" r="3"/><circle cx="1100" cy="342" r="3"/><circle cx="1100" cy="360" r="3"/><circle cx="1100" cy="378" r="3"/><circle cx="1100" cy="396" r="3"/><circle cx="1100" cy="414" r="3"/><circle cx="1100" cy="432" r="3"/><circle cx="1100" cy="450" r="3"/><circle cx="1117" cy="216" r="3"/><circle cx="1117" cy="234" r="3"/><circle cx="1117" cy="252" r="3"/><circle cx="1117" cy="270" r="3"/><circle cx="1117" cy="288" r="3"/><circle cx="1117" cy="306" r="3"/><circle cx="1117" cy="324" r="3"/><circle cx="1117" cy="342" r="3"/><circle cx="1117" cy="360" r="3"/><circle cx="1117" cy="378" r="3"/><circle cx="1117" cy="396" r="3"/><circle cx="1117" cy="414" r="3"/><circle cx="1117" cy="432" r="3"/><circle cx="1117" cy="450" r="3"/><circle cx="1133" cy="216" r="3"/><circle cx="1133" cy="234" r="3"/><circle cx="1133" cy="252" r="3"/><circle cx="1133" cy="270" r="3"/><circle cx="1133" cy="288" r="3"/><circle cx="1133" cy="306" r="3"/><circle cx="1133" cy="324" r="3"/><circle cx="1133" cy="342" r="3"/><circle cx="1133" cy="360" r="3"/><circle cx="1133" cy="378" r="3"/><circle cx="1133" cy="396" r="3"/><circle cx="1133" cy="414" r="3"/><circle cx="1133" cy="432" r="3"/><circle cx="1133" cy="450" r="3"/><circle cx="1150" cy="216" r="3"/><circle cx="1150" cy="234" r="3"/><circle cx="1150" cy="252" r="3"/><circle cx="1150" cy="270" r="3"/><circle cx="1150" cy="288" r="3"/><circle cx="1150" cy="306" r="3"/><circle cx="1150" cy="324" r="3"/><circle cx="1150" cy="342" r="3"/><circle cx="1150" cy="360" r="3"/><circle cx="1150" cy="378" r="3"/><circle cx="1150" cy="396" r="3"/><circle cx="1150" cy="414" r="3"/><circle cx="1150" cy="432" r="3"/><circle cx="1150" cy="450" r="3"/><circle cx="1167" cy="216" r="3"/><circle cx="1167" cy="234" r="3"/><circle cx="1167" cy="252" r="3"/><circle cx="1167" cy="270" r="3"/><circle cx="1167" cy="288" r="3"/><circle cx="1167" cy="306" r="3"/><circle cx="1167" cy="324" r="3"/><circle cx="1167" cy="342" r="3"/><circle cx="1167" cy="360" r="3"/><circle cx="1167" cy="378" r="3"/><circle cx="1167" cy="396" r="3"/><circle cx="1167" cy="414" r="3"/><circle cx="1167" cy="432" r="3"/><circle cx="1167" cy="450" r="3"/><circle cx="1183" cy="234" r="3"/><circle cx="1183" cy="252" r="3"/><circle cx="1183" cy="270" r="3"/><circle cx="1183" cy="288" r="3"/><circle cx="1183" cy="306" r="3"/><circle cx="1183" cy="324" r="3"/><circle cx="1183" cy="342" r="3"/><circle cx="1183" cy="360" r="3"/><circle cx="1183" cy="378" r="3"/><circle cx="1183" cy="396" r="3"/><circle cx="1183" cy="414" r="3"/><circle cx="1183" cy="432" r="3"/><circle cx="1183" cy="450" r="3"/><circle cx="1200" cy="234" r="3"/><circle cx="1200" cy="252" r="3"/><circle cx="1200" cy="270" r="3"/><circle cx="1200" cy="288" r="3"/><circle cx="1200" cy="306" r="3"/><circle cx="1200" cy="324" r="3"/><circle cx="1200" cy="342" r="3"/><circle cx="1200" cy="360" r="3"/><circle cx="1200" cy="378" r="3"/><circle cx="1200" cy="396" r="3"/><circle cx="1200" cy="414" r="3"/><circle cx="1200" cy="432" r="3"/><circle cx="1200" cy="450" r="3"/><circle cx="1217" cy="234" r="3"/><circle cx="1217" cy="252" r="3"/><circle cx="1217" cy="270" r="3"/><circle cx="1217" cy="288" r="3"/><circle cx="1217" cy="306" r="3"/><circle cx="1217" cy="324" r="3"/><circle cx="1217" cy="342" r="3"/><circle cx="1217" cy="360" r="3"/><circle cx="1217" cy="378" r="3"/><circle cx="1217" cy="396" r="3"/><circle cx="1217" cy="414" r="3"/><circle cx="1217" cy="432" r="3"/><circle cx="1217" cy="450" r="3"/><circle cx="1233" cy="252" r="3"/><circle cx="1233" cy="270" r="3"/><circle cx="1233" cy="288" r="3"/><circle cx="1233" cy="306" r="3"/><circle cx="1233" cy="324" r="3"/><circle cx="1233" cy="342" r="3"/><circle cx="1233" cy="360" r="3"/><circle cx="1233" cy="378" r="3"/><circle cx="1233" cy="396" r="3"/><circle cx="1233" cy="414" r="3"/><circle cx="1233" cy="432" r="3"/><circle cx="1233" cy="594" r="3"/><circle cx="1250" cy="252" r="3"/><circle cx="1250" cy="270" r="3"/><circle cx="1250" cy="288" r="3"/><circle cx="1250" cy="306" r="3"/><circle cx="1250" cy="324" r="3"/><circle cx="1250" cy="342" r="3"/><circle cx="1250" cy="360" r="3"/><circle cx="1250" cy="378" r="3"/><circle cx="1250" cy="396" r="3"/><circle cx="1250" cy="414" r="3"/><circle cx="1250" cy="432" r="3"/><circle cx="1250" cy="576" r="3"/><circle cx="1250" cy="594" r="3"/><circle cx="1250" cy="612" r="3"/><circle cx="1267" cy="252" r="3"/><circle cx="1267" cy="270" r="3"/><circle cx="1267" cy="288" r="3"/><circle cx="1267" cy="306" r="3"/><circle cx="1267" cy="324" r="3"/><circle cx="1267" cy="342" r="3"/><circle cx="1267" cy="360" r="3"/><circle cx="1267" cy="378" r="3"/><circle cx="1267" cy="396" r="3"/><circle cx="1267" cy="414" r="3"/><circle cx="1267" cy="432" r="3"/><circle cx="1267" cy="558" r="3"/><circle cx="1267" cy="576" r="3"/><circle cx="1267" cy="594" r="3"/><circle cx="1267" cy="612" r="3"/><circle cx="1267" cy="630" r="3"/><circle cx="1283" cy="252" r="3"/><circle cx="1283" cy="270" r="3"/><circle cx="1283" cy="288" r="3"/><circle cx="1283" cy="306" r="3"/><circle cx="1283" cy="324" r="3"/><circle cx="1283" cy="342" r="3"/><circle cx="1283" cy="360" r="3"/><circle cx="1283" cy="378" r="3"/><circle cx="1283" cy="396" r="3"/><circle cx="1283" cy="414" r="3"/><circle cx="1283" cy="432" r="3"/><circle cx="1283" cy="558" r="3"/><circle cx="1283" cy="576" r="3"/><circle cx="1283" cy="594" r="3"/><circle cx="1283" cy="612" r="3"/><circle cx="1283" cy="630" r="3"/><circle cx="1300" cy="270" r="3"/><circle cx="1300" cy="288" r="3"/><circle cx="1300" cy="306" r="3"/><circle cx="1300" cy="324" r="3"/><circle cx="1300" cy="342" r="3"/><circle cx="1300" cy="360" r="3"/><circle cx="1300" cy="378" r="3"/><circle cx="1300" cy="396" r="3"/><circle cx="1300" cy="414" r="3"/><circle cx="1300" cy="558" r="3"/><circle cx="1300" cy="576" r="3"/><circle cx="1300" cy="594" r="3"/><circle cx="1300" cy="612" r="3"/><circle cx="1300" cy="630" r="3"/><circle cx="1317" cy="270" r="3"/><circle cx="1317" cy="288" r="3"/><circle cx="1317" cy="306" r="3"/><circle cx="1317" cy="324" r="3"/><circle cx="1317" cy="342" r="3"/><circle cx="1317" cy="360" r="3"/><circle cx="1317" cy="378" r="3"/><circle cx="1317" cy="396" r="3"/><circle cx="1317" cy="414" r="3"/><circle cx="1317" cy="558" r="3"/><circle cx="1317" cy="576" r="3"/><circle cx="1317" cy="594" r="3"/><circle cx="1317" cy="612" r="3"/><circle cx="1317" cy="630" r="3"/><circle cx="1333" cy="288" r="3"/><circle cx="1333" cy="306" r="3"/><circle cx="1333" cy="324" r="3"/><circle cx="1333" cy="342" r="3"/><circle cx="1333" cy="360" r="3"/><circle cx="1333" cy="378" r="3"/><circle cx="1333" cy="396" r="3"/><circle cx="1333" cy="558" r="3"/><circle cx="1333" cy="576" r="3"/><circle cx="1333" cy="594" r="3"/><circle cx="1333" cy="612" r="3"/><circle cx="1333" cy="630" r="3"/><circle cx="1350" cy="306" r="3"/><circle cx="1350" cy="324" r="3"/><circle cx="1350" cy="342" r="3"/><circle cx="1350" cy="360" r="3"/><circle cx="1350" cy="378" r="3"/><circle cx="1350" cy="558" r="3"/><circle cx="1350" cy="576" r="3"/><circle cx="1350" cy="594" r="3"/><circle cx="1350" cy="612" r="3"/><circle cx="1350" cy="630" r="3"/><circle cx="1367" cy="324" r="3"/><circle cx="1367" cy="342" r="3"/><circle cx="1367" cy="360" r="3"/><circle cx="1367" cy="576" r="3"/><circle cx="1367" cy="594" r="3"/><circle cx="1367" cy="612" r="3"/><circle cx="1383" cy="576" r="3"/><circle cx="1383" cy="594" r="3"/><circle cx="1383" cy="612" r="3"/></g><circle cx="1300" cy="585" r="13" fill="#e4cd92"/><circle cx="1300" cy="585" r="30" fill="none" stroke="#d1ae67" stroke-width="2" opacity=".65"/><circle cx="1300" cy="585" r="52" fill="none" stroke="#a8823a" stroke-width="1.4" opacity=".35"/><line x1="1300" y1="555" x2="1300" y2="511" stroke="#d1ae67" stroke-width="2" opacity=".7"/><text x="1300" y="497" font-family="Inter,Helvetica,Arial,sans-serif" font-size="30" fill="#e4cd92" text-anchor="middle" opacity=".95" letter-spacing="2">Singapore</text><circle cx="990" cy="415" r="13" fill="#e4cd92"/><circle cx="990" cy="415" r="30" fill="none" stroke="#d1ae67" stroke-width="2" opacity=".65"/><circle cx="990" cy="415" r="52" fill="none" stroke="#a8823a" stroke-width="1.4" opacity=".35"/><line x1="990" y1="385" x2="990" y2="341" stroke="#d1ae67" stroke-width="2" opacity=".7"/><text x="990" y="327" font-family="Inter,Helvetica,Arial,sans-serif" font-size="30" fill="#e4cd92" text-anchor="middle" opacity=".95" letter-spacing="2">UAE</text><circle cx="1060" cy="720" r="13" fill="#e4cd92"/><circle cx="1060" cy="720" r="30" fill="none" stroke="#d1ae67" stroke-width="2" opacity=".65"/><circle cx="1060" cy="720" r="52" fill="none" stroke="#a8823a" stroke-width="1.4" opacity=".35"/><line x1="1060" y1="690" x2="1060" y2="646" stroke="#d1ae67" stroke-width="2" opacity=".7"/><text x="1060" y="632" font-family="Inter,Helvetica,Arial,sans-serif" font-size="30" fill="#e4cd92" text-anchor="middle" opacity=".95" letter-spacing="2">Mauritius</text><circle cx="300" cy="400" r="13" fill="#e4cd92"/><circle cx="300" cy="400" r="30" fill="none" stroke="#d1ae67" stroke-width="2" opacity=".65"/><circle cx="300" cy="400" r="52" fill="none" stroke="#a8823a" stroke-width="1.4" opacity=".35"/><line x1="300" y1="370" x2="300" y2="326" stroke="#d1ae67" stroke-width="2" opacity=".7"/><text x="300" y="312" font-family="Inter,Helvetica,Arial,sans-serif" font-size="30" fill="#e4cd92" text-anchor="middle" opacity=".95" letter-spacing="2">US</text><circle cx="1130" cy="470" r="16" fill="#fff"/><path d="M1130,470 Q1215,360 1300,585" fill="none" stroke="#d1ae67" stroke-width="2" opacity=".55" stroke-dasharray="9 8"/><path d="M1130,470 Q1060,305 990,415" fill="none" stroke="#d1ae67" stroke-width="2" opacity=".55" stroke-dasharray="9 8"/><path d="M1130,470 Q1095,360 1060,720" fill="none" stroke="#d1ae67" stroke-width="2" opacity=".55" stroke-dasharray="9 8"/><path d="M1130,470 Q715,290 300,400" fill="none" stroke="#d1ae67" stroke-width="2" opacity=".55" stroke-dasharray="9 8"/>
<rect width="1600" height="900" fill="url(#gr)"/>
</svg>